<svg xmlns="http://www.w3.org/2000/svg" viewBox="0 0 60.809 59.503">
  <defs>
    <style>
      .cls-1 {
        fill: #50a3cb;
      }

      .cls-2, .cls-3 {
        fill: #fff;
      }

      .cls-3 {
        opacity: 0.1;
      }
    </style>
  </defs>
  <g id="Group_378" data-name="Group 378" transform="translate(-497.407 -3890.817)">
    <path id="Path_4" data-name="Path 4" class="cls-1" d="M60.809,29.751C60.809,46.17,47.183,59.5,30.4,59.5S0,46.17,0,29.751,13.626,0,30.4,0s30.4,13.333,30.4,29.751Z" transform="translate(497.407 3890.817)"/>
    <path id="Path_5" data-name="Path 5" class="cls-2" d="M55.083,41.067h-4.5V56.935h-6.7V41.067H40.5V35.613h3.378V32.307c0-4.463,1.914-7.107,7.263-7.107h4.5v5.454H52.831c-2.083,0-2.252.771-2.252,2.2v2.755h5.067l-.563,5.454Z" transform="translate(479.71 3879.501)"/>
    <path id="Path_6" data-name="Path 6" class="cls-3" d="M30.623,0A30.211,30.211,0,0,0,.5,25.619c3.716-1.818,8.164-2.149,13.569-.275,15.315,5.014,30.123,15.867,45.776,12.562a30.071,30.071,0,0,0,1.182-8.154C61.027,13.333,47.4,0,30.623,0Z" transform="translate(497.189 3890.817)"/>
  </g>
</svg>
