<svg xmlns="http://www.w3.org/2000/svg" viewBox="0 0 60.809 59.503">
  <defs>
    <style>
      .cls-1 {
        fill: #980278;
      }

      .cls-2, .cls-3 {
        fill: #fff;
      }

      .cls-3 {
        opacity: 0.1;
      }
    </style>
  </defs>
  <g id="Group_377" data-name="Group 377" transform="translate(-790.191 -3890.817)">
    <path id="Path_10" data-name="Path 10" class="cls-1" d="M515.109,29.751c0,16.418-13.626,29.751-30.4,29.751S454.3,46.17,454.3,29.751,467.926,0,484.7,0s30.4,13.333,30.4,29.751Z" transform="translate(335.891 3890.817)"/>
    <path id="Path_11" data-name="Path 11" class="cls-2" d="M505.541,56.69H488.706a6.173,6.173,0,0,1-6.306-6.06V33.66a6.173,6.173,0,0,1,6.306-6.06h16.835a6.173,6.173,0,0,1,6.306,6.06V50.63a6.209,6.209,0,0,1-6.306,6.06Zm3.772-23.03a3.677,3.677,0,0,0-3.772-3.581H488.706a3.677,3.677,0,0,0-3.772,3.581V50.63a3.677,3.677,0,0,0,3.772,3.581h16.835a3.677,3.677,0,0,0,3.772-3.581V33.66ZM497.1,49.693a7.55,7.55,0,1,1,7.714-7.548,7.644,7.644,0,0,1-7.714,7.548Zm0-12.617a5.07,5.07,0,1,0,5.18,5.069,5.112,5.112,0,0,0-5.18-5.069Zm8.277-1.1a1.763,1.763,0,1,1,1.8-1.763,1.76,1.76,0,0,1-1.8,1.763Z" transform="translate(323.613 3878.423)"/>
    <path id="Path_12" data-name="Path 12" class="cls-3" d="M484.923,0A30.211,30.211,0,0,0,454.8,25.619c3.716-1.818,8.164-2.149,13.569-.275,15.315,5.014,30.123,15.867,45.776,12.562a30.07,30.07,0,0,0,1.182-8.154C515.328,13.333,501.7,0,484.923,0Z" transform="translate(335.673 3890.817)"/>
  </g>
</svg>
