<svg xmlns="http://www.w3.org/2000/svg" viewBox="0 0 60.809 59.503">
  <defs>
    <style>
      .cls-1 {
        fill: #51a4cb;
      }

      .cls-2, .cls-3 {
        fill: #fff;
      }

      .cls-3 {
        opacity: 0.1;
      }
    </style>
  </defs>
  <g id="Group_376" data-name="Group 376" transform="translate(-692.784 -3890.817)">
    <path id="Path_7" data-name="Path 7" class="cls-1" d="M287.909,29.751c0,16.418-13.626,29.751-30.4,29.751S227.1,46.17,227.1,29.751,240.726,0,257.5,0c16.835,0,30.4,13.333,30.4,29.751Z" transform="translate(465.684 3890.817)"/>
    <path id="Path_8" data-name="Path 8" class="cls-2" d="M282.052,37.616v.826a18.015,18.015,0,0,1-18.3,17.961,18.511,18.511,0,0,1-9.853-2.81,14.1,14.1,0,0,0,1.52.11,12.918,12.918,0,0,0,8-2.7,6.462,6.462,0,0,1-6.025-4.408,8.614,8.614,0,0,0,1.239.11,5.932,5.932,0,0,0,1.689-.22,6.4,6.4,0,0,1-5.18-6.171V40.26a5.79,5.79,0,0,0,2.928.771A6.3,6.3,0,0,1,255.2,35.8a6.218,6.218,0,0,1,.9-3.2,18.526,18.526,0,0,0,13.288,6.611,5.882,5.882,0,0,1-.169-1.432,6.348,6.348,0,0,1,6.419-6.281,6.613,6.613,0,0,1,4.73,1.983,13.155,13.155,0,0,0,4.11-1.543,6.221,6.221,0,0,1-2.815,3.471,14.217,14.217,0,0,0,3.716-.992,15.079,15.079,0,0,1-3.322,3.2Z" transform="translate(453.974 3876.672)"/>
    <path id="Path_9" data-name="Path 9" class="cls-3" d="M257.723,0A30.211,30.211,0,0,0,227.6,25.619c3.716-1.818,8.164-2.149,13.569-.275,15.315,5.014,30.123,15.867,45.776,12.562a30.071,30.071,0,0,0,1.182-8.154C288.127,13.333,274.558,0,257.723,0Z" transform="translate(465.466 3890.817)"/>
  </g>
</svg>
