<svg id="Asset_10" data-name="Asset 10" xmlns="http://www.w3.org/2000/svg" viewBox="0 0 25.8 26.11">
  <defs>
    <style>
      .cls-1 {
        fill: #010002;
      }

      .cls-2 {
        fill: #fff;
      }
    </style>
  </defs>
  <g id="Layer_1" data-name="Layer 1">
    <path id="Path_136" data-name="Path 136" class="cls-1" d="M25.25,13H24.8V6.22a.54.54,0,0,0-.54-.54h-1V.54A.54.54,0,0,0,22.73,0H3.38A3.39,3.39,0,0,0,0,3.38V22.73a3.39,3.39,0,0,0,3.38,3.38H24.26a.54.54,0,0,0,.54-.54V19h.45a.55.55,0,0,0,.55-.54V13.52a.55.55,0,0,0-.55-.52Zm-.54,4.94h-6.3l-1.26-1.8,1.28-2.06h6.28ZM3.38,1.08H22.19v4.6H3.38a2.3,2.3,0,0,1,0-4.6ZM23.72,25H3.38a2.3,2.3,0,0,1-2.3-2.3V5.94a3.36,3.36,0,0,0,1.55.81H23.75V13H18.13a.56.56,0,0,0-.46.25l-1.62,2.62a.55.55,0,0,0,0,.6l1.63,2.32a.52.52,0,0,0,.44.23h5.59v6Z"/>
    <path id="Path_137" data-name="Path 137" class="cls-1" d="M19.57,14.55A1.44,1.44,0,1,0,21,16a1.44,1.44,0,0,0-1.43-1.45Zm0,1.8a.36.36,0,1,1,.36-.36A.36.36,0,0,1,19.57,16.35Z"/>
    <path id="Path_138" data-name="Path 138" d="M14.65,16.16A5,5,0,1,1,11,10.1,5,5,0,0,1,14.65,16.16Z"/>
    <path id="Path_139" data-name="Path 139" class="cls-2" d="M12,14.24c.1-.66-.41-1-1.1-1.26l.23-.9-.55-.14-.22.88-.44-.1.22-.89-.55-.13-.22.9L9,12.51H9l-.76-.19-.15.59s.41.09.4.1a.3.3,0,0,1,.26.32l-.26,1h.02L8.15,15.8a.2.2,0,0,1-.25.13l-.4-.1-.27.62.71.18.39.1-.22.91.55.14.22-.9.44.11-.23.9.55.14.23-.91c.94.17,1.64.1,1.93-.74a1,1,0,0,0-.5-1.33.88.88,0,0,0,.7-.81ZM10.75,16c-.17.68-1.32.31-1.69.22L9.36,15C9.73,15.1,10.92,15.29,10.75,16Zm.17-1.77c-.16.62-1.11.31-1.42.23l.27-1.1C10.08,13.44,11.08,13.58,10.92,14.23Z"/>
  </g>
</svg>
