<svg xmlns="http://www.w3.org/2000/svg" xmlns:xlink="http://www.w3.org/1999/xlink" viewBox="0 0 718.935 718.936"><defs><style>.a{opacity:0.12;}.b{fill:url(#a);}.c{fill:url(#b);}.d{fill:url(#c);}.e{fill:url(#d);}</style><linearGradient id="a" x1="0.501" y1="0.562" x2="0.501" y2="1.561" gradientUnits="objectBoundingBox"><stop offset="0" stop-color="#e9a300"/><stop offset="1" stop-color="#ffe300"/></linearGradient><linearGradient id="b" x1="0.5" y1="0.562" x2="0.5" y2="1.563" xlink:href="#a"/><linearGradient id="c" x1="0.5" y1="0.562" x2="0.5" y2="1.562" xlink:href="#a"/><linearGradient id="d" x1="0.5" y1="0" x2="0.5" y2="1" xlink:href="#a"/></defs><g class="a" transform="translate(-512.767 -272.767)"><g transform="translate(603.826 363.827)"><path class="b" d="M438.345,411.318h19.376c6.485,0,13.208.949,18.9-2.768,7.672-4.9,12.733-12.654,15.106-21.354,4.508-16.213-2.926-45.475-23.647-45.4H412.8v69.439C421.342,411.318,429.883,411.318,438.345,411.318Z" transform="translate(-177.435 -162.588)"/><path class="c" d="M453.867,472.1H412.9v71.812h22.7c12.891,0,26.415,1.186,39.228-.237,19.614-2.214,33.929-16.055,36.38-35.669.712-5.932-3.322-13.84-6.485-18.427C492.7,472.1,472.769,472.1,453.867,472.1Z" transform="translate(-177.456 -189.836)"/><path class="d" d="M382.2,115.2c-147.419,0-267,119.5-267,267s119.5,267,267,267,267-119.5,267-267S529.619,115.2,382.2,115.2ZM510.4,461.446a46.836,46.836,0,0,1-4.745,10.756c-14.394,25.783-38.595,28.63-38.595,28.63C450.452,507,413.123,507,413.123,507v40.967h-34.8V506.842H351.118v41.126H316.241V506.842H248.384v-36.7c0,.158,24.043.158,27.048-.554,8.462-1.9,16.371-7.751,16.371-17.162V324.466c0-4.824.87-10.44-.237-15.106-1.819-7.355-8.937-12.1-15.976-13.524-2.373-.474-27.206-1.265-27.206-.4V258.19l67.778.712V216.353h34.008v41.6h29.342v-41.6h33.454v41.758c0-1.028,28.63.791,31.319,1.186,12.97,2.135,26.178,6.96,35.827,16.213,6.169,5.932,9.649,12.812,13.682,20.167,13.208,24.122.475,50.537.475,50.537-6.643,16.055-28.867,27.918-28.867,27.918,12.654,3.48,24.833,9.253,34.166,18.744a67.611,67.611,0,0,1,13.6,19.614C519.259,426.647,514.355,447.131,510.4,461.446Z" transform="translate(-115.2 -115.2)"/></g><path class="e" d="M359.468,0C160.919,0,0,160.919,0,359.468S160.919,718.936,359.468,718.936,718.935,558.017,718.935,359.468,558.016,0,359.468,0Zm0,691.707C176,691.707,27.23,542.934,27.23,359.468S176,27.23,359.468,27.23,691.705,176,691.705,359.468,542.933,691.707,359.468,691.707Z" transform="translate(512.767 272.767)"/></g></svg>