<svg xmlns="http://www.w3.org/2000/svg" viewBox="0 0 534 534"><defs><style>.cls-1{fill:#231f20;}</style></defs><title>Asset 2</title><g id="Layer_2" data-name="Layer 2"><g id="Layer_1-2" data-name="Layer 1"><path id="Path_20" data-name="Path 20" class="cls-1" d="M260.91,248.73h19.38c6.48,0,13.2,1,18.9-2.77,7.67-4.9,12.73-12.65,15.1-21.35,4.51-16.22-2.92-45.48-23.65-45.4H235.36v69.44C243.91,248.73,252.45,248.73,260.91,248.73Z"/><path id="Path_21" data-name="Path 21" class="cls-1" d="M276.41,282.26h-41v71.82h22.7c12.89,0,26.42,1.18,39.23-.24,19.62-2.22,33.93-16.06,36.38-35.67.71-5.93-3.32-13.84-6.48-18.43C315.24,282.26,295.31,282.26,276.41,282.26Z"/><path id="Path_22" data-name="Path 22" class="cls-1" d="M267,0C119.58,0,0,119.5,0,267S119.5,534,267,534,534,414.5,534,267,414.42,0,267,0ZM395.2,346.25A46.5,46.5,0,0,1,390.45,357c-14.39,25.79-38.59,28.63-38.59,28.63-16.61,6.17-53.94,6.17-53.94,6.17v41h-34.8V391.64h-27.2v41.13H201V391.64H133.18v-36.7c0,.16,24,.16,27-.55,8.46-1.9,16.37-7.75,16.37-17.16v-128c0-4.83.87-10.44-.23-15.11-1.82-7.35-8.94-12.1-16-13.52-2.37-.48-27.21-1.27-27.21-.4V143l67.78.71V101.15h34v41.6h29.34v-41.6h33.46v41.76c0-1,28.63.79,31.31,1.19,13,2.13,26.18,7,35.83,16.21,6.17,5.93,9.65,12.81,13.68,20.17,13.21,24.12.48,50.53.48,50.53-6.64,16.06-28.87,27.92-28.87,27.92,12.66,3.48,24.84,9.25,34.17,18.75A67.75,67.75,0,0,1,398,297.29C404.06,311.45,399.15,331.93,395.2,346.25Z"/></g></g></svg>