<svg xmlns="http://www.w3.org/2000/svg" viewBox="0 0 29.9 30.067">
  <defs>
    <style>
      .cls-1 {
        fill: #fff;
      }
    </style>
  </defs>
  <path id="path" class="cls-1" d="M350.566,524a16.134,16.134,0,0,1,10.69,3.842,11.936,11.936,0,0,1,4.343,9.521,7.836,7.836,0,0,1-2.506,5.846,8.1,8.1,0,0,1-5.846,2.506h-2.84a2.512,2.512,0,0,0-1.837.668,2.282,2.282,0,0,0-.668,1.838,2.393,2.393,0,0,0,.668,1.67,2.394,2.394,0,0,1,.668,1.67,2.512,2.512,0,0,1-.668,1.837,2.282,2.282,0,0,1-1.837.668,15.028,15.028,0,0,1-10.69-4.343,14.112,14.112,0,0,1-4.343-10.691,15.029,15.029,0,0,1,4.343-10.691A13.751,13.751,0,0,1,350.566,524Zm-10.857,14.365a2.86,2.86,0,1,0-.668-1.837A2.282,2.282,0,0,0,339.709,538.365Zm5.011-6.682a2.861,2.861,0,1,0-.668-1.837A2.282,2.282,0,0,0,344.72,531.684Zm8.352,0a2.86,2.86,0,1,0-.668-1.837A2.281,2.281,0,0,0,353.072,531.684Zm5.011,6.682a2.861,2.861,0,1,0-.668-1.837A2.282,2.282,0,0,0,358.083,538.365Z" transform="translate(-335.7 -524)"/>
</svg>
