<?xml version="1.0" encoding="utf-8"?>
<!-- Generator: Adobe Illustrator 23.0.1, SVG Export Plug-In . SVG Version: 6.00 Build 0)  -->
<svg version="1.1" id="Layer_1" xmlns="http://www.w3.org/2000/svg" xmlns:xlink="http://www.w3.org/1999/xlink" x="0px" y="0px"
	 viewBox="0 0 30.2 17.8" style="enable-background:new 0 0 30.2 17.8;" xml:space="preserve">
<style type="text/css">
	.st0{fill:#EAAE0D;stroke:#000000;stroke-width:0.25;}
	.st1{fill:url(#Path_91_1_);stroke:#000000;stroke-width:0.25;stroke-miterlimit:10;}
</style>
<path id="Path_92" class="st0" d="M16,6.3L16,6.3c0-0.6-0.4-1-0.9-1H1c-0.5,0-0.9,0.4-0.9,1l0,0c0,0.6,0.4,1,0.9,1h14.1
	C15.6,7.3,16,6.9,16,6.3z"/>
<path id="Path_93" class="st0" d="M16,11.9L16,11.9c0-0.6-0.4-1-0.9-1H1c-0.5,0-0.9,0.4-0.9,1l0,0c0,0.6,0.4,1,0.9,1h14.1
	C15.6,12.9,16,12.5,16,11.9z"/>
<g id="Layer_1-2_1_" transform="translate(431.524 1081.254)">
	
		<linearGradient id="Path_91_1_" gradientUnits="userSpaceOnUse" x1="-2363.4705" y1="-1077.6067" x2="-2363.1301" y2="-1077.6067" gradientTransform="matrix(33.617 0 0 43.414 79039.9531 45710.3242)">
		<stop  offset="0" style="stop-color:#E9A300"/>
		<stop  offset="1" style="stop-color:#FFE300"/>
	</linearGradient>
	<path id="Path_91" class="st1" d="M-401.5-1071.4c-0.2-0.3-0.4-0.7-0.6-1c-0.4-0.4-0.9-0.8-1.5-0.9c0,0,0.9-0.6,1.2-1.4
		c0.3-0.8,0.3-1.7,0-2.5c-0.2-0.3-0.4-0.7-0.6-1c-0.4-0.4-0.9-0.7-1.5-0.8c-0.4-0.1-0.8-0.1-1.3-0.1v-2.1h-1.4v2.1h-1.3v-2.1h-1.5
		v2.1l-2.9,0v1.8c0.4,0,0.8,0,1.2,0c0.3,0,0.6,0.3,0.7,0.7c0,0.3,0,0.5,0,0.7v6.4c0,0.4-0.3,0.8-0.7,0.8c-0.1,0-1.1,0-1.1,0v1.8h2.9
		v2.1h1.5v-2h1.2v2.1h1.5v-2c0,0,1.6,0,2.3-0.3c0.7-0.2,1.3-0.7,1.7-1.4c0.1-0.2,0.2-0.3,0.2-0.5
		C-401.5-1069.7-401.3-1070.7-401.5-1071.4z M-406.1-1077.3c0.9,0,1.2,1.4,1,2.2c-0.1,0.4-0.3,0.8-0.6,1c-0.2,0.1-0.6,0.2-0.8,0.1
		h-1.9v-3.5C-407.7-1077.3-406.9-1077.3-406.1-1077.3z M-404.3-1070.4c-0.1,0.9-0.7,1.7-1.5,1.7c-0.6,0-1.1,0-1.7,0h-1v-3.5h1.8
		c0.8,0,1.7,0,2.2,0.9C-404.4-1071-404.3-1070.7-404.3-1070.4L-404.3-1070.4z"/>
</g>
<path id="Path_94" class="st0" d="M5.9,17.6L5.9,17.6c0.5,0,0.9-0.4,0.9-1V1.1c0-0.6-0.4-1-0.9-1l0,0C5.4,0.1,5,0.6,5,1.1v15.5
	C5,17.2,5.4,17.6,5.9,17.6z"/>
<path id="Path_95" class="st0" d="M11.3,17.6L11.3,17.6c0.5,0,0.9-0.4,0.9-1V1.1c0-0.6-0.4-1-0.9-1l0,0c-0.5,0-0.9,0.4-0.9,1v15.5
	C10.4,17.2,10.8,17.6,11.3,17.6z"/>
</svg>
