<?xml version="1.0" ?><svg enable-background="new 0 0 52 52" id="Layer_1" version="1.1" viewBox="0 0 52 52" xml:space="preserve" xmlns="http://www.w3.org/2000/svg" xmlns:xlink="http://www.w3.org/1999/xlink"><g><path d="M38,13.8650208c0-6.6200562-5.3800049-12-12-12c-6.6099854,0-12,5.3799438-12,12c0,4.75,2.7300415,8.9599609,7,10.9099731   v20.7600098l4.7000122,4.5999756l4.5200195-6.1400146l-2.0100098-3.1099854l1.9400024-2.75l-2.0800171-3.9799805   l1.4500122-3.9799805L29,28.5849915v-3.0999756C34.2700195,24.1349792,38,19.3749695,38,13.8650208z M26,11.8650208   c-1.6499634,0-3-1.3400269-3-3c0-1.6500244,1.3500366-3,3-3c1.6600342,0,3,1.3499756,3,3   C29,10.5249939,27.6600342,11.8650208,26,11.8650208z"/></g></svg>