<svg xmlns="http://www.w3.org/2000/svg" viewBox="0 0 22.173 19.474">
  <path id="path" d="M670.1,148a3.1,3.1,0,0,0,2.2,5.3h4v1.9h-4a4.691,4.691,0,0,1-3.5-1.5,4.852,4.852,0,0,1-1.5-3.5,4.539,4.539,0,0,1,1.5-3.5,5.093,5.093,0,0,1,3.5-1.5h4v1.9h-4A2.941,2.941,0,0,0,670.1,148Zm3.2,3.2v-2h8v2Zm9-6a4.691,4.691,0,0,1,3.5,1.5,4.852,4.852,0,0,1,1.5,3.5,4.539,4.539,0,0,1-1.5,3.5,5.093,5.093,0,0,1-3.5,1.5h-4v-1.9h4a3.1,3.1,0,0,0,2.2-.9,3.1,3.1,0,0,0-2.2-5.3h-4v-1.9h4Z" transform="translate(-466.43 -493.526) rotate(34)"/>
</svg>
