<svg xmlns="http://www.w3.org/2000/svg" xmlns:xlink="http://www.w3.org/1999/xlink" viewBox="0 0 244 50">
  <defs>
    <style>
      .cls-1 {
        stroke: #000;
        stroke-miterlimit: 10;
        stroke-width: 0.75px;
        fill: url(#linear-gradient);
      }

      .cls-2 {
        fill: none;
      }

      .cls-3 {
        fill: #fafafa;
        font-size: 43px;
        font-family: RobotoMonoForPowerline-Medium, Roboto Mono Medium for Powerline;
        font-weight: 500;
      }

      .cls-4 {
        fill: #eaae0d;
      }
    </style>
    <linearGradient id="linear-gradient" y1="0.5" x2="1" y2="0.5" gradientUnits="objectBoundingBox">
      <stop offset="0" stop-color="#e9a300"/>
      <stop offset="1" stop-color="#ffe300"/>
    </linearGradient>
  </defs>
  <g id="Group_340" data-name="Group 340" transform="translate(0 8.164)">
    <g id="Group_291" data-name="Group 291" transform="translate(54.524 -5.606)">
      <g id="Layer_1-2_1_">
        <path id="Path_91" data-name="Path 91" class="cls-1" d="M215.116,26.076a8.97,8.97,0,0,0-1.7-2.563,9.291,9.291,0,0,0-4.287-2.459s2.793-1.552,3.626-3.654a8.188,8.188,0,0,0-.06-6.622,10.177,10.177,0,0,0-1.712-2.64,8.235,8.235,0,0,0-4.5-2.123,28.259,28.259,0,0,0-3.934-.161V.38h-4.206V5.827h-3.688V.38h-4.278V5.949l-8.506-.1v4.882a21.179,21.179,0,0,1,3.416.048,2.524,2.524,0,0,1,2.009,1.775,9.236,9.236,0,0,1,.03,1.974V31.288a2.424,2.424,0,0,1-2.063,2.248c-.377.089-3.4.086-3.4.068v4.8h8.524v5.385h4.383V38.409h3.419v5.385h4.371V38.43s4.691,0,6.772-.809a6.944,6.944,0,0,0,4.844-3.746,6.292,6.292,0,0,0,.6-1.409C215.272,30.589,215.885,27.9,215.116,26.076ZM201.643,10.585c2.6-.006,3.542,3.821,2.97,5.947a4.809,4.809,0,0,1-1.9,2.795,4.02,4.02,0,0,1-2.377.363H194.7v-9.1Q198.172,10.595,201.643,10.585Zm5.41,18.2a5.136,5.136,0,0,1-4.569,4.671,42.61,42.61,0,0,1-4.931.033H194.7v-9.4h5.146c2.377,0,4.883,0,6.389,2.289A4.3,4.3,0,0,1,207.053,28.785Z" transform="translate(-181.86 -0.38)"/>
      </g>
    </g>
    <rect id="Rectangle_105" data-name="Rectangle 105" class="cls-2" width="154.304" height="37.139" transform="translate(89.696 -0.532)"/>
    <text id="AZAAR" class="cls-3" transform="translate(89.698 31.836)"><tspan x="0" y="0">AZAAR</tspan></text>
    <g id="Group_292" data-name="Group 292" transform="translate(0 -5.014)">
      <path id="Path_92" data-name="Path 92" class="cls-4" d="M46.7,47.947h0a2.706,2.706,0,0,0-2.7-2.7H2.7a2.706,2.706,0,0,0-2.7,2.7H0a2.706,2.706,0,0,0,2.7,2.7H44.007A2.708,2.708,0,0,0,46.7,47.947Z" transform="translate(0 -32.509)"/>
      <path id="Path_93" data-name="Path 93" class="cls-4" d="M46.7,98.907h0a2.706,2.706,0,0,0-2.7-2.7H2.7a2.706,2.706,0,0,0-2.7,2.7H0a2.706,2.706,0,0,0,2.7,2.7H44.007A2.706,2.706,0,0,0,46.7,98.907Z" transform="translate(0 -68.31)"/>
      <path id="Path_94" data-name="Path 94" class="cls-4" d="M50.557,48.765h0a2.7,2.7,0,0,0,2.7-2.68V5.04a2.7,2.7,0,0,0-2.7-2.68h0a2.7,2.7,0,0,0-2.7,2.68V46.085A2.7,2.7,0,0,0,50.557,48.765Z" transform="translate(-33.531 -2.36)"/>
      <path id="Path_95" data-name="Path 95" class="cls-4" d="M103.387,48.765h0a2.7,2.7,0,0,0,2.7-2.68V5.04a2.7,2.7,0,0,0-2.7-2.68h0a2.7,2.7,0,0,0-2.7,2.68V46.085A2.7,2.7,0,0,0,103.387,48.765Z" transform="translate(-70.545 -2.36)"/>
    </g>
  </g>
</svg>
