<svg xmlns="http://www.w3.org/2000/svg" viewBox="0 0 815 176"><defs><style>.a{stroke:#000;stroke-miterlimit:10;stroke-width:0.75px;fill:url(#a);}.b{fill:none;}.c{fill:#fafafa;font-size:150px;font-family:RobotoMonoForPowerline-Medium, Roboto Mono Medium for Powerline;font-weight:500;}.d{fill:#eaae0d;}</style><linearGradient id="a" y1="0.5" x2="1" y2="0.5" gradientUnits="objectBoundingBox"><stop offset="0" stop-color="#e9a300"/><stop offset="1" stop-color="#ffe300"/></linearGradient></defs><g transform="translate(0 8.164)"><g transform="translate(182.119 0.38)"><path class="a" d="M292.94,86.8a30.184,30.184,0,0,0-5.69-8.62,30.983,30.983,0,0,0-14.32-8.27s9.33-5.22,12.11-12.29c0,0,5.35-11.65-.2-22.27-1.69-3.23-3.13-6.27-5.72-8.88-4.04-4.09-9.59-6.2-15.04-7.14-1.13-.2-13.14-1-13.14-.54V.38H236.89V18.7H224.57V.38H210.28V19.11l-28.41-.33V35.2c0-.41,10.43-.06,11.41.16,2.99.64,5.97,2.72,6.71,5.97.47,2.02.1,4.53.1,6.64v56.36c0,4.12-3.35,6.72-6.89,7.56-1.26.3-11.34.29-11.34.23v16.16h28.47v18.11h14.64V128.28h11.42v18.11h14.6V128.35s15.67,0,22.62-2.72c0,0,10.13-1.24,16.18-12.6a21.245,21.245,0,0,0,1.99-4.74C293.46,101.98,295.51,92.95,292.94,86.8Zm-45-52.1c8.68-.02,11.83,12.85,9.92,20a16.176,16.176,0,0,1-6.35,9.4c-2.4,1.62-5.22,1.22-7.94,1.22H224.75V34.72Q236.345,34.735,247.94,34.7Zm18.07,61.21c-1.03,8.62-7.04,14.73-15.26,15.71-5.38.64-11.05.11-16.47.11h-9.53V80.1h17.19c7.94,0,16.31,0,21.34,7.7C264.61,89.83,266.3,93.3,266.01,95.91Z" transform="translate(-181.86 -0.38)"/></g><rect class="b" width="515.4" height="124.05" transform="translate(299.6 18.33)"/><text class="c" transform="translate(299.604 130.836)"><tspan x="0" y="0">AZAAR</tspan></text><g transform="translate(0 2.36)"><path class="d" d="M156,54.26h0a9.037,9.037,0,0,0-9.01-9.01H9.01A9.037,9.037,0,0,0,0,54.26H0a9.037,9.037,0,0,0,9.01,9.01H146.99A9.044,9.044,0,0,0,156,54.26Z" transform="translate(0 -2.36)"/><path class="d" d="M156,105.22h0a9.037,9.037,0,0,0-9.01-9.01H9.01A9.037,9.037,0,0,0,0,105.22H0a9.037,9.037,0,0,0,9.01,9.01H146.99A9.037,9.037,0,0,0,156,105.22Z" transform="translate(0 -2.36)"/><path class="d" d="M56.87,158.36h0a9.037,9.037,0,0,0,9.01-9.01V11.37a9.037,9.037,0,0,0-9.01-9.01h0a9.037,9.037,0,0,0-9.01,9.01V149.35A9.031,9.031,0,0,0,56.87,158.36Z" transform="translate(0 -2.36)"/><path class="d" d="M109.7,158.36h0a9.037,9.037,0,0,0,9.01-9.01V11.37a9.037,9.037,0,0,0-9.01-9.01h0a9.037,9.037,0,0,0-9.01,9.01V149.35A9.031,9.031,0,0,0,109.7,158.36Z" transform="translate(0 -2.36)"/></g></g></svg>