<svg xmlns="http://www.w3.org/2000/svg" viewBox="0 0 35.1 34.954">
  <defs>
    <style>
      .cls-1 {
        fill: #fff;
      }
    </style>
  </defs>
  <path id="path" class="cls-1" d="M387.123,1190.938v1.894a1.583,1.583,0,0,1-.146.728l-3.35,7.719a2.062,2.062,0,0,1-2.039,1.311h-9.9a2.19,2.19,0,0,1-1.6-.583,1.989,1.989,0,0,1-.583-1.6v-9.467a2.189,2.189,0,0,1,.583-1.6l7.282-7.137,1.165,1.165a1.654,1.654,0,0,1,.437,1.165c-.146.583-.291,1.6-.583,2.767a13.132,13.132,0,0,0-.437,2.185h7.573a1.322,1.322,0,0,1,1.02.437A1.473,1.473,0,0,1,387.123,1190.938Zm15.292,5.826a2.19,2.19,0,0,1,1.6.583,1.989,1.989,0,0,1,.583,1.6v9.467a2.19,2.19,0,0,1-.583,1.6l-7.282,7.137-1.165-1.165a1.653,1.653,0,0,1-.437-1.165c.146-.583.291-1.6.583-2.767a13.144,13.144,0,0,0,.437-2.185h-7.574a1.493,1.493,0,0,1-1.456-1.456v-1.893a1.583,1.583,0,0,1,.146-.728l3.35-7.719a2.062,2.062,0,0,1,2.039-1.311h9.758Z" transform="translate(-369.5 -1182.2)"/>
</svg>
