<svg xmlns="http://www.w3.org/2000/svg" viewBox="0 0 27.62 28.157">
  <defs>
    <style>
      .cls-1 {
        fill: #fff;
      }
    </style>
  </defs>
  <path id="path" class="cls-1" d="M63.46,1164.886l2.957,2.253a.834.834,0,0,1,.141.985l-2.816,4.928a.627.627,0,0,1-.845.281l-3.52-1.408a11.479,11.479,0,0,1-2.393,1.408l-.563,3.66c-.141.423-.282.563-.7.563H50.085a.718.718,0,0,1-.7-.563l-.563-3.66a8.238,8.238,0,0,1-2.393-1.408l-3.52,1.408a.627.627,0,0,1-.845-.281l-2.816-4.928a.679.679,0,0,1,.141-.985l2.957-2.253v-2.816l-2.957-2.253a.834.834,0,0,1-.141-.985l2.816-4.927a.626.626,0,0,1,.845-.282l3.52,1.408a11.478,11.478,0,0,1,2.393-1.408l.563-3.661c.141-.422.282-.563.7-.563h5.632a.719.719,0,0,1,.7.563l.563,3.661a8.239,8.239,0,0,1,2.393,1.408l3.52-1.408a.627.627,0,0,1,.845.282l2.816,4.927a.679.679,0,0,1-.141.985l-2.957,2.253v2.816ZM49.522,1167a5.1,5.1,0,1,0-1.408-3.52A4.67,4.67,0,0,0,49.522,1167Z" transform="translate(-39.091 -1149.4)"/>
</svg>
