<svg id="Layer_1" data-name="Layer 1" xmlns="http://www.w3.org/2000/svg" viewBox="0 0 399.116 96.665">
  <defs>
    <style>
      .cls-1 {
        fill: #DBDBDB;
      }

      .cls-10, .cls-2, .cls-3 {
        fill: none;
      }

      .cls-11, .cls-12, .cls-13, .cls-2, .cls-3 {
        stroke: #231f20;
      }

      .cls-10, .cls-11, .cls-12, .cls-13, .cls-15, .cls-2, .cls-3 {
        stroke-miterlimit: 10;
      }

      .cls-3 {
        stroke-width: 0.5px;
      }

      .cls-4 {
        fill: #414042;
      }

      .cls-16, .cls-5 {
        fill: #231f20;
      }

      .cls-6 {
        fill: #393839;
      }

      .cls-12, .cls-13, .cls-7 {
        fill: #faa71a;
      }

      .cls-8 {
        fill: #fff;
      }

      .cls-9 {
        fill: #302e2f;
      }

      .cls-10 {
        stroke: #000;
      }

      .cls-10, .cls-15 {
        stroke-width: 0.25px;
      }

      .cls-11 {
        fill: #636466;
        stroke-width: 0.75px;
      }

      .cls-12 {
        stroke-width: 2px;
      }

      .cls-14 {
        fill: #010101;
      }

      .cls-15 {
        fill: #02613e;
        stroke: #010101;
      }

      .cls-16 {
        font-size: 12px;
        font-family: BKoodakBold, B Koodak;
      }
    </style>
  </defs>
  <title>workflow</title>
  <rect class="cls-1" width="399.116" height="96.665"/>
  <line class="cls-2" x1="51.745" y1="83.039" x2="334.348" y2="83.039"/>
  <path class="cls-3" d="M264.833,76.949"/>
  <path class="cls-3" d="M295.5,76.949"/>
  <g>
    <g>
      <polygon class="cls-4" points="122.241 96.665 140.627 78.23 154.991 74.377 163.035 56.446 177.973 44.38 190.614 44.38 207.276 40.932 225.662 68.799 241.75 93.449 265.881 96.665 122.241 96.665"/>
      <path class="cls-5" d="M167.118,85.707c1.313-1.112,2.639-2.208,3.987-3.275l.005,0,.008,0q2.925-1.721,5.9-3.357l.034-.018.03.014,2.032.971-2.089-.841.064,0q-2.9,1.764-5.856,3.429l.013-.009Q169.21,84.195,167.118,85.707Z"/>
      <polyline class="cls-6" points="207.276 40.932 202.105 64.49 207.276 78.23 214.171 96.665 265.881 96.665 233.993 83.641"/>
      <g>
        <path id="Path_141" data-name="Path 141" class="cls-7" d="M188.2,54.228a3.092,3.092,0,1,1-1.623-1.739A3.09,3.09,0,0,1,188.2,54.228Z"/>
        <path id="Path_142" data-name="Path 142" class="cls-8" d="M186.184,54.178c-.18-.37-.57-.38-1-.26l-.2-.54-.33.15.2.52-.26.1-.22-.51-.33.12.2.54-.19.11h0l-.45.12.13.35.24-.09a.189.189,0,0,1,.24.07l.23.61h0l.32.86a.13.13,0,0,1-.08.16l-.24.09.08.41.43-.16.23-.09.2.55.33-.12-.19-.52.26-.1.2.54.33-.13-.19-.58c.53-.24.87-.52.72-1.05a.579.579,0,0,0-.64-.51h-.09A.56.56,0,0,0,186.184,54.178Zm0,1.33c.15.41-.56.63-.78.71l-.27-.69c.24-.12.87-.41,1,0Zm-.53-1c.13.37-.46.55-.65.62l-.24-.6c.16,0,.72-.31.87.07Z"/>
      </g>
      <g>
        <path class="cls-7" d="M133.172,92.446a4.5,4.5,0,0,0,2.244-2.329,1.742,1.742,0,0,0-.825-2.076,3.424,3.424,0,0,0-.533-.26l-7.644,5.493A9.017,9.017,0,0,0,133.172,92.446Z"/>
        <path class="cls-8" d="M131.493,90.414l.16-.031a1.059,1.059,0,0,1-1.06-.079l-.511.368c.272.183.486.436.047.66l.054.032a1.127,1.127,0,0,1-1.037-.022l-.954.678.5-.255a2.046,2.046,0,0,0,2.066.075c.52-.2.787-.564.6-.819l-.036-.078a1.74,1.74,0,0,0,1.1-.276c.548-.351.406-.693.031-1l.823-.459-.383-.2-.79.448-.178-.111-.549.4C131.583,89.9,131.95,90.153,131.493,90.414Z"/>
      </g>
      <g>
        <path class="cls-7" d="M183.538,66.134a3.09,3.09,0,0,0,2.811,3.346,3.182,3.182,0,0,0,.641-.012l-.594-6.139A3.082,3.082,0,0,0,183.538,66.134Z"/>
        <path class="cls-8" d="M186.779,67.292a3.5,3.5,0,0,1-.467-.024l.052-.739a2.722,2.722,0,0,1,.342.013l-.039-.411c-.1,0-.192-.014-.249-.019l.039-.645a.693.693,0,0,0,.149.034l-.043-.443-.1-.007.02-.556-.35-.032-.05.573-.219.018-.458-.084-.032.372.255.022a.189.189,0,0,1,.187.166l-.053.649-.079.915a.13.13,0,0,1-.141.11l-.255-.022-.1.405.457.04.246.017-.055.583.35.032.051-.551.278.021-.051.574.354.023.035-.273Z"/>
      </g>
      <g>
        <path id="Path_141-2" data-name="Path 141" class="cls-7" d="M199.158,84.6a3.09,3.09,0,1,1-1.623-1.739A3.091,3.091,0,0,1,199.158,84.6Z"/>
        <path id="Path_142-2" data-name="Path 142" class="cls-8" d="M197.138,84.552c-.18-.37-.57-.38-1-.26l-.2-.54-.33.15.2.52-.26.1-.22-.51-.33.12.2.54-.19.11h0l-.45.12.13.35.24-.09a.19.19,0,0,1,.24.07l.23.61h0l.32.86a.13.13,0,0,1-.08.16l-.24.09.08.41.43-.16.23-.09.2.55.33-.12-.19-.52.26-.1.2.54.33-.13-.19-.58c.53-.24.87-.52.72-1.05a.581.581,0,0,0-.64-.51h-.09A.56.56,0,0,0,197.138,84.552Zm0,1.33c.15.41-.56.63-.78.71l-.27-.69c.24-.12.87-.41,1,0Zm-.53-1c.13.37-.46.55-.65.62l-.24-.6c.16,0,.72-.31.87.07Z"/>
      </g>
      <g>
        <path id="Path_141-3" data-name="Path 141" class="cls-7" d="M176.318,67.722a3.09,3.09,0,1,1-1.623-1.739A3.091,3.091,0,0,1,176.318,67.722Z"/>
        <path id="Path_142-3" data-name="Path 142" class="cls-8" d="M174.3,67.672c-.18-.37-.57-.38-1-.26l-.2-.54-.33.15.2.52-.26.1-.22-.51-.33.12.2.54-.19.11h0l-.45.12.13.35.24-.09a.19.19,0,0,1,.24.07l.23.61h0l.32.86a.13.13,0,0,1-.08.16l-.24.09.08.41.43-.16.23-.09.2.55.33-.12-.19-.52.26-.1.2.54.33-.13-.19-.58c.53-.24.87-.52.72-1.05a.581.581,0,0,0-.64-.51h-.09A.56.56,0,0,0,174.3,67.672Zm0,1.33c.15.41-.56.63-.78.71l-.27-.69c.24-.12.87-.41,1,0Zm-.53-1c.13.37-.46.55-.65.62l-.24-.6c.16,0,.72-.31.87.07Z"/>
      </g>
      <g>
        <path id="Path_141-4" data-name="Path 141" class="cls-7" d="M197.908,63.72a3.09,3.09,0,1,1-1.623-1.739A3.091,3.091,0,0,1,197.908,63.72Z"/>
        <path id="Path_142-4" data-name="Path 142" class="cls-8" d="M195.888,63.67c-.18-.37-.57-.38-1-.26l-.2-.54-.33.15.2.52-.26.1-.22-.51-.33.12.2.54-.19.11h0l-.45.12.13.35.24-.09a.19.19,0,0,1,.24.07l.23.61h0l.32.86a.13.13,0,0,1-.08.16l-.24.09.08.41.43-.16.23-.09.2.55.33-.12-.19-.52.26-.1.2.54.33-.13-.19-.58c.53-.24.87-.52.72-1.05a.581.581,0,0,0-.64-.51h-.09A.56.56,0,0,0,195.888,63.67Zm0,1.33c.15.41-.56.63-.78.71l-.27-.69c.24-.12.87-.41,1,0Zm-.53-1c.13.37-.46.55-.65.62l-.24-.6c.16,0,.72-.31.87.07Z"/>
      </g>
      <path class="cls-7" d="M145.833,70.891a3.088,3.088,0,0,0-4.065,1.6,3.152,3.152,0,0,0-.187.582l6.079.311A3.076,3.076,0,0,0,145.833,70.891Z"/>
      <path class="cls-7" d="M141.575,73.06a3.09,3.09,0,0,0,5.543,2.662,3.061,3.061,0,0,0,.437-1.526Z"/>
      <path class="cls-8" d="M144.3,73.359l-.04-.084a.3.3,0,0,1,.134.32l.709.135a.255.255,0,0,1,.084.016l.091.017.018-.031a.358.358,0,0,1,.044.043l.644.122a.662.662,0,0,0-.282-.715.579.579,0,0,0-.818,0l-.071.056a.56.56,0,0,0-.341-.546c-.371-.179-.683.055-.946.416l-.492-.3-.166.322.445.264.535.1C143.967,73.355,144.119,73.255,144.3,73.359Z"/>
      <path class="cls-8" d="M145.275,73.763l-.091-.017a.294.294,0,0,1,.082.033Z"/>
      <path class="cls-8" d="M145.981,73.9l-.644-.122c.276.253-.1.809-.216,1l-.64-.375c.1-.2.334-.667.619-.668l-.709-.135a1.637,1.637,0,0,1-.26.57l-.56-.322c.062-.049.154-.218.274-.352l-.535-.1.034.02-.142.24-.489-.264-.184.3.491.3-.081.2-.278.373.319.195.132-.22a.19.19,0,0,1,.232-.094l.558.337.784.476a.131.131,0,0,1,.037.176l-.133.219.317.272.238-.392.125-.213.5.308.185-.3-.472-.29.142-.24.492.3.178-.307-.508-.337A1.933,1.933,0,0,0,145.981,73.9Z"/>
      <g>
        <path id="Path_141-5" data-name="Path 141" class="cls-7" d="M217.849,68.635a3.09,3.09,0,1,1-1.623-1.739A3.091,3.091,0,0,1,217.849,68.635Z"/>
        <path id="Path_142-5" data-name="Path 142" class="cls-8" d="M215.829,68.585c-.18-.37-.57-.38-1-.26l-.2-.54-.33.15.2.52-.26.1-.22-.51-.33.12.2.54-.19.11h0l-.45.12.13.35.24-.09a.19.19,0,0,1,.24.07l.23.61h0l.32.86a.13.13,0,0,1-.08.16l-.24.09.08.41.43-.16.23-.09.2.55.33-.12-.19-.52.26-.1.2.54.33-.13-.19-.58c.53-.24.87-.52.72-1.05a.581.581,0,0,0-.64-.51h-.09A.56.56,0,0,0,215.829,68.585Zm0,1.33c.15.41-.56.63-.78.71l-.27-.69c.24-.12.87-.41,1,0Zm-.53-1c.13.37-.46.55-.65.62l-.24-.6c.16,0,.72-.31.87.07Z"/>
      </g>
      <path class="cls-7" d="M223.021,95.081a.19.19,0,0,0-.24-.07l-.24.09-.13-.35.45-.12.19-.11-.127-.342c-.484-.068-.969-.144-1.453-.225a3.123,3.123,0,0,0-.425,1.5h2.115Z"/>
      <path class="cls-7" d="M172.091,64.159a.19.19,0,0,0-.24-.07l-.24.09-.13-.35.45-.12.19-.11-.127-.343q-.726-.1-1.452-.225a3.119,3.119,0,0,0-.425,1.5h2.115Z"/>
      <path class="cls-7" d="M140.02,93.936a.19.19,0,0,0-.24-.07l-.24.09-.13-.35.45-.12.19-.11-.127-.342c-.484-.068-.968-.144-1.453-.225a3.126,3.126,0,0,0-.425,1.5h2.116Z"/>
      <path class="cls-7" d="M247.325,93.333q-1.041-.145-2.081-.275a.555.555,0,0,1-.081.589h.09a.572.572,0,0,1,.609.413h1.56A3.077,3.077,0,0,0,247.325,93.333Z"/>
      <path class="cls-7" d="M233.764,95.1l.33-.12.163.377.3.041.02-.008-.2-.52.33-.15.2.54c.43-.12.82-.11,1,.26.009.016,0,.035.011.051q1.041.13,2.082.275c-.025-.092-.039-.185-.073-.276a3.074,3.074,0,0,0-5.539-.5q.726.123,1.453.225Z"/>
      <g>
        <path id="Path_141-6" data-name="Path 141" class="cls-7" d="M227.761,77.675a3.089,3.089,0,1,1-1.623-1.739A3.089,3.089,0,0,1,227.761,77.675Z"/>
        <path id="Path_142-6" data-name="Path 142" class="cls-8" d="M225.741,77.625c-.18-.37-.57-.38-1-.26l-.2-.54-.33.15.2.52-.26.1-.22-.51-.33.12.2.54-.19.11h0l-.45.12.13.35.24-.09a.19.19,0,0,1,.24.07l.23.61h0l.32.86a.13.13,0,0,1-.08.16l-.24.09.08.41.43-.16.23-.09.2.55.33-.12-.19-.52.26-.1.2.54.33-.13-.19-.58c.53-.24.87-.52.72-1.05a.58.58,0,0,0-.64-.51h-.09A.56.56,0,0,0,225.741,77.625Zm0,1.33c.15.41-.56.63-.78.71l-.27-.69c.24-.12.87-.41,1,0Zm-.53-1c.13.37-.46.55-.65.62l-.24-.6c.16,0,.72-.31.87.07Z"/>
      </g>
      <g>
        <path id="Path_141-7" data-name="Path 141" class="cls-7" d="M210.048,61.541a3.09,3.09,0,1,1-1.623-1.739A3.09,3.09,0,0,1,210.048,61.541Z"/>
        <path id="Path_142-7" data-name="Path 142" class="cls-8" d="M208.028,61.491c-.18-.37-.57-.38-1-.26l-.2-.54-.33.15.2.52-.26.1-.22-.51-.33.12.2.54-.19.11h0l-.45.12.13.35.24-.09a.19.19,0,0,1,.24.07l.23.61h0l.32.86a.13.13,0,0,1-.08.16l-.24.09.08.41.43-.16.23-.09.2.55.33-.12-.19-.52.26-.1.2.54.33-.13-.19-.58c.53-.24.87-.52.72-1.05a.581.581,0,0,0-.64-.51h-.09A.56.56,0,0,0,208.028,61.491Zm0,1.33c.15.41-.56.63-.78.71l-.27-.69c.24-.12.87-.41,1,0Zm-.53-1c.13.37-.46.55-.65.62l-.24-.6c.16,0,.72-.31.87.07Z"/>
      </g>
      <g>
        <path id="Path_141-8" data-name="Path 141" class="cls-7" d="M176.671,79.852a3.09,3.09,0,1,1-1.623-1.739A3.089,3.089,0,0,1,176.671,79.852Z"/>
        <path id="Path_142-8" data-name="Path 142" class="cls-8" d="M174.651,79.8c-.18-.37-.57-.38-1-.26l-.2-.54-.33.15.2.52-.26.1-.22-.51-.33.12.2.54-.19.11h0l-.45.12.13.35.24-.09a.19.19,0,0,1,.24.07l.23.61h0l.32.86a.13.13,0,0,1-.08.16l-.24.09.08.41.43-.16.23-.09.2.55.33-.12-.19-.52.26-.1.2.54.33-.13-.19-.58c.53-.24.87-.52.72-1.05a.58.58,0,0,0-.64-.51h-.09A.56.56,0,0,0,174.651,79.8Zm0,1.33c.15.41-.56.63-.78.71l-.27-.69c.24-.12.87-.41,1,0Zm-.53-1c.13.37-.46.55-.65.62l-.24-.6c.16,0,.72-.31.87.07Z"/>
      </g>
      <g>
        <path id="Path_141-9" data-name="Path 141" class="cls-7" d="M175.774,55.592a3.09,3.09,0,1,1-1.623-1.739A3.09,3.09,0,0,1,175.774,55.592Z"/>
        <path id="Path_142-9" data-name="Path 142" class="cls-8" d="M173.754,55.542c-.18-.37-.57-.38-1-.26l-.2-.54-.33.15.2.52-.26.1-.22-.51-.33.12.2.54-.19.11h0l-.45.12.13.35.24-.09a.19.19,0,0,1,.24.07l.23.61h0l.32.86a.13.13,0,0,1-.08.16l-.24.09.08.41.43-.16.23-.09.2.55.33-.12-.19-.52.26-.1.2.54.33-.13-.19-.58c.53-.24.87-.52.72-1.05a.58.58,0,0,0-.64-.51h-.09A.56.56,0,0,0,173.754,55.542Zm0,1.33c.15.41-.56.63-.78.71l-.27-.69c.24-.12.87-.41,1,0Zm-.53-1c.13.37-.46.55-.65.62l-.24-.6c.16,0,.72-.31.87.07Z"/>
      </g>
      <rect class="cls-4" x="170.491" y="56.937" width="8.361" height="2.822" transform="translate(355.116 21.543) rotate(150)"/>
      <rect class="cls-4" x="150.33" y="87.533" width="11.062" height="4.51" transform="translate(245.946 245.478) rotate(-150)"/>
      <rect class="cls-4" x="182.266" y="54.199" width="8.361" height="4.404" transform="translate(328.516 -76.866) rotate(120)"/>
      <rect class="cls-4" x="193.235" y="65.238" width="8.361" height="4.404" transform="translate(405.923 60.664) rotate(159.278)"/>
      <rect class="cls-6" x="222.68" y="76.75" width="7.515" height="7.285" transform="translate(462.733 36.796) rotate(150)"/>
      <rect class="cls-6" x="210.277" y="68.592" width="10.786" height="4.848" transform="matrix(-0.171, 0.985, -0.985, -0.171, 322.431, -129.382)"/>
      <rect class="cls-6" x="203.377" y="59.682" width="10.786" height="6.687" transform="translate(421.083 13.223) rotate(150)"/>
      <rect class="cls-4" x="190.831" y="83.181" width="8.361" height="8.361" transform="translate(407.577 65.514) rotate(150)"/>
      <polygon class="cls-4" points="170.529 71.15 175.144 70.021 177.77 66.969 179.759 70.414 172.518 74.595 170.529 71.15"/>
      <path class="cls-9" d="M163.431,56.436l-2.566,1.584a.605.605,0,0,1-.9-.351l-.623-2.213a.605.605,0,0,1,.612-.768l2.113.1a.594.594,0,0,1,.237.061l1.076.526A.606.606,0,0,1,163.431,56.436Z"/>
      <g>
        <path class="cls-4" d="M149.1,67.64h-3.016a.6.6,0,0,1-.581-.771l.632-2.211a.605.605,0,0,1,.924-.332l1.745,1.2a.619.619,0,0,1,.17.176l.638,1.014A.6.6,0,0,1,149.1,67.64Z"/>
        <line class="cls-10" x1="153.996" y1="59.855" x2="148.481" y2="62.34"/>
        <line class="cls-10" x1="155.194" y1="64.24" x2="150.344" y2="64.746"/>
        <line class="cls-10" x1="156.634" y1="70.275" x2="151.343" y2="67.22"/>
      </g>
      <polyline class="cls-9" points="175.144 70.021 175.665 70.782 175.665 71.509 176.319 71.658 176.319 72.252"/>
      <polyline class="cls-9" points="174.788 70.154 174.957 71.061 174.664 71.726 175.202 72.126 174.962 72.67"/>
      <polyline class="cls-9" points="175.188 70.059 176.057 70.37 176.484 70.959 177.1 70.695 177.449 71.176"/>
      <path class="cls-5" d="M175.731,72.459l-.057,1.6-.006-.034.748,1.517-.029-.038q1.74,1.386,3.437,2.825l.058.049-.028.067-.7,1.61L179.153,80l.606.926-.689-.866-.016-.021.01-.028.6-1.647.03.116q-1.743-1.383-3.444-2.815l-.021-.018-.009-.02-.678-1.55-.008-.019,0-.016Z"/>
      <path class="cls-5" d="M191.513,66.311c-.126.785-.272,1.566-.453,2.337v-.054c.205.715.382,1.438.558,2.161l.007.031-.008.027c-.206.624-.425,1.244-.666,1.857.135-.645.291-1.284.461-1.919v.058c-.2-.717-.4-1.434-.568-2.159l-.007-.029.006-.026C191.035,67.827,191.264,67.066,191.513,66.311Z"/>
      <path class="cls-5" d="M187.146,50.417c-.266,3.491-.6,6.975-.922,10.461v-.021c.375,3.253.694,6.512,1.013,9.77v.011l0,.01c-.353,2.845-.712,5.69-1.114,8.529.281-2.854.6-5.7.933-8.551v.02c-.363-3.254-.727-6.508-1.034-9.768v-.02C186.385,57.376,186.73,53.893,187.146,50.417Z"/>
      <path d="M200.082,61.485q-.707,1.626-1.453,3.233l-.016.035-.038.014q-2.88,1.119-5.789,2.162l.066-.075c-.337,1.328-.686,2.653-1.058,3.972.264-1.345.551-2.685.851-4.022l.012-.054.054-.021q2.886-1.107,5.8-2.144l-.053.049Q199.248,63.049,200.082,61.485Z"/>
      <path class="cls-5" d="M186.215,52.358a27.759,27.759,0,0,1-1.626,3c-.306.48-.613.959-.884,1.459s-.529,1.006-.8,1.508l-.008.016-.02.015q-1.014.779-2.064,1.509l.053-.1c0,.345-.017.69-.025,1.035l-.069-.1.824.317.067.026-.028.058-.326.7-.024-.009.231-.733.039.084-.848-.245-.068-.02,0-.077c-.008-.345-.026-.69-.024-1.035v-.065l.053-.038q1.032-.756,2.1-1.462l-.028.031c.3-.485.608-.962.894-1.453s.549-.995.806-1.5a27.972,27.972,0,0,1,1.754-2.925Z"/>
      <path class="cls-5" d="M196.542,81.651c1.095,1.677,2.1,3.4,3.1,5.137l-.1-.061c1.1.006,2.2.018,3.3.052l.052,0,.013.045.456,1.589-.586-1.545.065.047c-1.1.034-2.2.046-3.3.052h-.069l-.036-.061C198.437,85.176,197.446,83.438,196.542,81.651Z"/>
      <path class="cls-5" d="M142.709,85.679c1.762-1.237,3.575-2.392,5.385-3.554,1.825-1.137,3.645-2.281,5.518-3.343-1.762,1.237-3.575,2.392-5.385,3.554C146.4,83.473,144.581,84.616,142.709,85.679Z"/>
      <g>
        <path id="Path_141-10" data-name="Path 141" class="cls-7" d="M150.152,82.259a3.09,3.09,0,1,1-1.623-1.739A3.091,3.091,0,0,1,150.152,82.259Z"/>
        <path id="Path_142-10" data-name="Path 142" class="cls-8" d="M148.132,82.209c-.18-.37-.57-.38-1-.26l-.2-.54-.33.15.2.52-.26.1-.22-.51-.33.12.2.54-.19.11h0l-.45.12.13.35.24-.09a.19.19,0,0,1,.24.07l.23.61h0l.32.86a.13.13,0,0,1-.08.16l-.24.09.08.41.43-.16.23-.09.2.55.33-.12-.19-.52.26-.1.2.54.33-.13-.19-.58c.53-.24.87-.52.72-1.05a.581.581,0,0,0-.64-.51h-.09A.563.563,0,0,0,148.132,82.209Zm0,1.33c.15.41-.56.63-.78.71l-.27-.69c.24-.12.87-.41,1,0Zm-.53-1c.13.37-.46.55-.65.62l-.24-.6c.16,0,.72-.31.87.07Z"/>
      </g>
      <polygon class="cls-4" points="143.435 85.319 152.301 79.637 154.555 83.542 144.976 89.073 143.435 85.319"/>
      <polygon class="cls-4" points="168.983 84.436 171.443 82.484 177.052 79.321 178.229 81.151 173.231 86.503 168.983 84.436"/>
      <path class="cls-5" d="M159.319,92.809c7.128-1.1,14.271-2.093,21.407-3.135l.018,0,.018,0,13.2,2.288q6.6,1.143,13.189,2.347-6.615-1.047-13.219-2.174L180.723,89.9h.036C173.612,90.874,166.473,91.9,159.319,92.809Z"/>
    </g>
    <g>
      <rect id="Rectangle_133" data-name="Rectangle 133" class="cls-11" x="119.937" y="54.936" width="52.325" height="5.059" rx="1.135" transform="translate(-8.231 86.263) rotate(-32.041)"/>
      <path id="Path_140" data-name="Path 140" class="cls-11" d="M151.054,29.4s35.986-.31,24.291,38.854C175.345,68.257,175.942,38.223,151.054,29.4Z"/>
      <rect id="Rectangle_134" data-name="Rectangle 134" class="cls-11" x="163.72" y="38.914" width="12.369" height="8.214" rx="2.193" transform="translate(3.058 96.693) rotate(-32.041)"/>
    </g>
  </g>
  <g>
    <g>
      <g>
        <path id="Path_141-11" data-name="Path 141" class="cls-7" d="M345.57,56.946a3.09,3.09,0,1,1-1.292,2A3.089,3.089,0,0,1,345.57,56.946Z"/>
        <path id="Path_142-11" data-name="Path 142" class="cls-8" d="M346.013,58.918c-.315.264-.23.645-.009,1.033l-.475.325.225.284.456-.321.16.228-.441.338.2.29.475-.325.153.158h0l.226.407.307-.211-.145-.211a.19.19,0,0,1,.009-.25l.536-.371h0l.757-.52a.13.13,0,0,1,.174.039l.146.211.378-.177-.26-.379-.143-.2.485-.328-.2-.29-.458.31-.16-.228.475-.325-.206-.288-.517.325c-.361-.456-.715-.718-1.193-.443a.58.58,0,0,0-.339.745l.022.087A.56.56,0,0,0,346.013,58.918Zm1.29-.324c.361-.245.747.39.878.584l-.6.43c-.175-.2-.61-.744-.243-.97Zm-.841.757c.327-.216.645.313.759.48l-.523.379c-.039-.155-.476-.623-.144-.861Z"/>
      </g>
      <g>
        <path id="Path_141-12" data-name="Path 141" class="cls-7" d="M338.952,62.039a3.091,3.091,0,1,1,2.293.635A3.089,3.089,0,0,1,338.952,62.039Z"/>
        <path id="Path_142-12" data-name="Path 142" class="cls-8" d="M340.7,61.026c.347.222.684.027.988-.3l.453.356.2-.3-.442-.339.169-.221.454.32.219-.274-.453-.356.105-.193h0l.321-.338-.294-.23-.157.2a.19.19,0,0,1-.242.065l-.514-.4h0l-.722-.566a.13.13,0,0,1-.016-.178l.158-.2-.283-.308-.283.361-.149.2-.458-.364-.218.274.433.344-.169.222-.453-.356-.213.283.465.4c-.327.482-.47.9-.066,1.272a.58.58,0,0,0,.812.1l.077-.047A.56.56,0,0,0,340.7,61.026Zm-.7-1.134c-.342-.271.148-.829.294-1.013l.591.448c-.142.227-.528.8-.853.522Zm.974.576c-.3-.247.1-.709.231-.868l.518.386c-.137.084-.452.641-.779.4Z"/>
      </g>
      <g>
        <path id="Path_141-13" data-name="Path 141" class="cls-7" d="M349.535,57.063a3.091,3.091,0,1,1-1.292,2A3.09,3.09,0,0,1,349.535,57.063Z"/>
        <path id="Path_142-13" data-name="Path 142" class="cls-8" d="M349.977,59.034c-.315.265-.23.645-.009,1.033l-.475.326.226.283.456-.32.16.228-.441.337.2.291.476-.325.152.157h0l.226.408.308-.212-.146-.21a.191.191,0,0,1,.01-.25l.536-.372h0l.756-.519a.13.13,0,0,1,.175.039l.145.21.379-.177-.26-.378-.143-.2.485-.328-.2-.291-.458.311-.16-.228.475-.325-.207-.289-.516.325c-.362-.455-.716-.717-1.193-.443a.581.581,0,0,0-.34.745l.022.087A.56.56,0,0,0,349.977,59.034Zm1.291-.323c.361-.245.747.39.878.584l-.6.429c-.175-.2-.609-.744-.243-.97Zm-.842.757c.328-.216.646.313.76.48l-.524.378c-.039-.155-.476-.623-.143-.86Z"/>
      </g>
      <g>
        <path id="Path_141-14" data-name="Path 141" class="cls-7" d="M356.9,55.987a3.088,3.088,0,1,1-2.238.8A3.09,3.09,0,0,1,356.9,55.987Z"/>
        <path id="Path_142-14" data-name="Path 142" class="cls-8" d="M356.057,57.823c-.411.02-.574.374-.634.817l-.575-.03.008.363.557.021-.011.279h-.556l-.019.35.575.029.026.218h0l-.067.461.372.019.012-.256a.191.191,0,0,1,.159-.193l.652.029h0l.916.045a.131.131,0,0,1,.116.137l-.012.256.408.088.023-.458.008-.247.584.033.02-.35-.553-.031.011-.278.575.029.01-.355-.607-.054c-.012-.581-.135-1-.681-1.076a.58.58,0,0,0-.721.387l-.036.083A.559.559,0,0,0,356.057,57.823Zm1.222.525c.436.024.358.763.345,1l-.741-.024c-.016-.268-.034-.961.394-.919Zm-1.128.093c.391.026.324.639.313.841l-.646-.016c.063-.147,0-.784.408-.772Z"/>
      </g>
      <g>
        <path id="Path_141-15" data-name="Path 141" class="cls-7" d="M347.123,55.615a3.088,3.088,0,1,1-.088-2.377A3.09,3.09,0,0,1,347.123,55.615Z"/>
        <path id="Path_142-15" data-name="Path 142" class="cls-8" d="M345.629,54.255c.106-.4-.182-.66-.586-.851l.2-.539-.348-.1-.189.524-.262-.094.167-.53-.328-.125-.2.539-.216-.041h0l-.418-.2-.131.349.24.09a.191.191,0,0,1,.136.21l-.226.611h0l-.321.86a.129.129,0,0,1-.165.068l-.24-.089-.208.363.429.16.233.083-.209.546.328.126.2-.518.262.095-.2.539.334.118.236-.563c.558.165,1,.176,1.232-.322a.58.58,0,0,0-.15-.8l-.068-.059A.56.56,0,0,0,345.629,54.255Zm-.871,1.006c-.155.408-.835.109-1.054.026l.247-.7c.26.067.927.26.756.655Zm.254-1.1c-.144.364-.707.114-.9.043l.211-.611c.121.1.748.237.612.623Z"/>
      </g>
      <g>
        <path id="Path_141-16" data-name="Path 141" class="cls-7" d="M339.249,49.121a3.089,3.089,0,1,1-2.326-.5A3.09,3.09,0,0,1,339.249,49.121Z"/>
        <path id="Path_142-16" data-name="Path 142" class="cls-8" d="M337.564,50.236c-.359-.2-.685.015-.969.36l-.473-.329-.185.312.462.312-.156.231-.472-.292-.2.287.473.328-.093.2h0l-.3.356.307.213L336.1,52a.19.19,0,0,1,.237-.08l.538.368h0l.754.522a.129.129,0,0,1,.026.177l-.145.211.3.291.261-.378.138-.2.478.336.2-.287-.453-.318.156-.23.473.328.2-.3-.488-.366c.3-.5.416-.925-.011-1.273a.578.578,0,0,0-.816-.052l-.074.051A.561.561,0,0,0,337.564,50.236Zm.761,1.091c.358.25-.1.837-.233,1.029l-.616-.412c.128-.235.479-.834.82-.572Zm-1.007-.517c.319.229-.062.715-.178.881l-.54-.355c.131-.091.413-.666.753-.44Z"/>
      </g>
      <g>
        <path id="Path_141-17" data-name="Path 141" class="cls-7" d="M345.57,56.946a3.09,3.09,0,1,1-1.292,2A3.089,3.089,0,0,1,345.57,56.946Z"/>
        <path id="Path_142-17" data-name="Path 142" class="cls-8" d="M346.013,58.918c-.315.264-.23.645-.009,1.033l-.475.325.225.284.456-.321.16.228-.441.338.2.29.475-.325.153.158h0l.226.407.307-.211-.145-.211a.19.19,0,0,1,.009-.25l.536-.371h0l.757-.52a.13.13,0,0,1,.174.039l.146.211.378-.177-.26-.379-.143-.2.485-.328-.2-.29-.458.31-.16-.228.475-.325-.206-.288-.517.325c-.361-.456-.715-.718-1.193-.443a.58.58,0,0,0-.339.745l.022.087A.56.56,0,0,0,346.013,58.918Zm1.29-.324c.361-.245.747.39.878.584l-.6.43c-.175-.2-.61-.744-.243-.97Zm-.841.757c.327-.216.645.313.759.48l-.523.379c-.039-.155-.476-.623-.144-.861Z"/>
      </g>
      <g>
        <path id="Path_141-18" data-name="Path 141" class="cls-7" d="M363.053,57.174a3.09,3.09,0,1,1-1.292,2A3.089,3.089,0,0,1,363.053,57.174Z"/>
        <path id="Path_142-18" data-name="Path 142" class="cls-8" d="M363.5,59.145c-.315.265-.23.646-.009,1.034l-.475.325.225.284.456-.321.16.228-.441.337.2.291.475-.325.153.158h0l.226.407.307-.211-.145-.211a.19.19,0,0,1,.009-.25l.536-.371h0l.757-.52a.13.13,0,0,1,.174.039l.146.211.378-.177-.26-.379-.143-.2.485-.328-.2-.291-.458.311-.16-.228.475-.325-.206-.288-.517.325c-.361-.456-.716-.718-1.193-.443a.578.578,0,0,0-.339.744l.022.088A.562.562,0,0,0,363.5,59.145Zm1.29-.323c.361-.245.747.39.878.584l-.6.43c-.175-.2-.61-.744-.244-.97Zm-.841.757c.327-.216.645.313.759.48l-.523.379c-.039-.155-.476-.623-.144-.861Z"/>
      </g>
      <g>
        <path id="Path_141-19" data-name="Path 141" class="cls-7" d="M358.088,60.264a3.091,3.091,0,1,1-1.292,2A3.091,3.091,0,0,1,358.088,60.264Z"/>
        <path id="Path_142-19" data-name="Path 142" class="cls-8" d="M358.53,62.236c-.315.264-.23.645-.009,1.033l-.475.325.226.284.456-.321.16.228-.441.338.2.291.475-.326.153.158h0l.226.407.308-.211-.146-.211a.191.191,0,0,1,.01-.25l.536-.371h0l.756-.52a.131.131,0,0,1,.175.039l.145.211.379-.177-.26-.378-.143-.2.485-.327-.2-.291-.458.31-.16-.227.475-.326-.207-.288-.516.325c-.362-.456-.716-.717-1.194-.443a.581.581,0,0,0-.339.745l.022.087A.56.56,0,0,0,358.53,62.236Zm1.291-.324c.361-.245.747.39.878.584l-.6.43c-.175-.2-.609-.744-.243-.97Zm-.842.758c.328-.216.646.312.76.479l-.524.379c-.039-.155-.476-.623-.143-.861Z"/>
      </g>
      <g>
        <path id="Path_141-20" data-name="Path 141" class="cls-7" d="M348.154,60.955a3.09,3.09,0,1,1-.4-2.344A3.089,3.089,0,0,1,348.154,60.955Z"/>
        <path id="Path_142-20" data-name="Path 142" class="cls-8" d="M346.492,59.805c.053-.408-.268-.63-.693-.766l.129-.561-.358-.056-.118.545-.273-.059.1-.547-.341-.081-.129.561-.22-.012h0l-.442-.147-.083.364.25.057a.19.19,0,0,1,.162.19l-.142.636h0l-.2.895a.132.132,0,0,1-.155.09l-.25-.057-.158.387.447.1.242.051-.135.569.342.081.127-.539.272.059-.129.561.347.073.159-.589c.575.09,1.013.042,1.178-.483a.579.579,0,0,0-.255-.778l-.075-.049A.561.561,0,0,0,346.492,59.805Zm-.729,1.112c-.1.425-.814.22-1.042.166l.153-.725c.266.031.952.134.836.548Zm.105-1.127c-.094.381-.686.208-.883.162l.128-.633c.134.087.772.136.689.536Z"/>
      </g>
      <path class="cls-12" d="M336.732,62.108h36.646c1.112,0,2.015,1.2,2.015,2.677V92.771c0,1.479-.9,2.678-2.015,2.678H336.362c-1.126,0-2.034-1.228-2.014-2.725l.369-27.985C334.736,63.278,335.633,62.108,336.732,62.108Z"/>
    </g>
    <g>
      <path class="cls-13" d="M374.907,80.791h-6.654a2.366,2.366,0,0,1-1.624-.644l-1.083-1.021a2.368,2.368,0,0,1-.2-3.23l1.5-1.821a2.367,2.367,0,0,1,1.827-.862h6.237a2.368,2.368,0,0,1,2.368,2.368v2.842A2.368,2.368,0,0,1,374.907,80.791Z"/>
      <circle class="cls-13" cx="369.177" cy="77.419" r="0.693"/>
    </g>
    <g>
      <path id="Path_138" data-name="Path 138" class="cls-14" d="M352.538,83.282a6.793,6.793,0,1,1,0-.006Z"/>
      <path id="Path_139" data-name="Path 139" class="cls-8" d="M349.229,80.885c.125-.824-.511-1.249-1.373-1.573l.287-1.124-.686-.175-.275,1.1-.549-.125.274-1.111-.687-.163-.274,1.124-.462-.112h0l-.949-.238-.187.737s.512.112.5.125a.375.375,0,0,1,.325.4L344.847,81h.025l-.449,1.835a.251.251,0,0,1-.312.163l-.5-.125-.337.774.886.225.487.124-.274,1.137.686.174.275-1.123.549.137-.287,1.124.687.174.287-1.136c1.174.213,2.048.125,2.41-.924a1.249,1.249,0,0,0-.614-1.655l-.011,0A1.1,1.1,0,0,0,349.229,80.885Zm-1.56,2.2c-.212.849-1.648.387-2.11.275l.374-1.524C346.4,81.958,347.881,82.2,347.669,83.082Zm.212-2.21c-.2.774-1.386.387-1.773.287l.337-1.373C346.832,79.886,348.081,80.061,347.881,80.872Z"/>
    </g>
  </g>
  <path class="cls-15" d="M24.813,64.446a12.115,12.115,0,0,0,11.01,0c3.033-1.764,3.013-4.618-.039-6.373a12.117,12.117,0,0,0-11.011,0C21.741,59.828,21.761,62.682,24.813,64.446ZM26.191,61.4c.228-.079.465-.148.693-.218.169-.049.268-.069.337-.029a.352.352,0,0,1,.109.128,2.55,2.55,0,0,0,.724.783.914.914,0,0,0,.168.109,2.07,2.07,0,0,0,.605.228c.584.129,1.11-.109,1.05-.466a.953.953,0,0,0-.158-.356,6.349,6.349,0,0,1-.6-.892c-.218-.506-.119-.962.585-1.318a3.584,3.584,0,0,1,2.616-.179c.387.1.387.109.684-.069.1-.06.2-.119.3-.169a.421.421,0,0,1,.535,0c.02.01.05.03.07.04.049.03.089.05.138.079.476.278.476.278.01.555-.327.189-.337.2-.049.417a2.227,2.227,0,0,1,.515.555c.079.109.03.188-.139.247-.267.08-.525.169-.792.248-.159.05-.258.06-.327.02A.32.32,0,0,1,33.158,61a2.3,2.3,0,0,0-.813-.743c-.04-.02-.089-.05-.129-.07a1.4,1.4,0,0,0-.377-.138c-.5-.119-.951.079-.891.386a1.257,1.257,0,0,0,.218.456,6.12,6.12,0,0,1,.5.773c.426.852-.5,1.685-1.972,1.764a4.184,4.184,0,0,1-1.507-.188.547.547,0,0,0-.515.039c-.158.1-.317.189-.485.278a.426.426,0,0,1-.446,0c-.109-.06-.209-.119-.318-.179-.069-.039-.148-.089-.218-.128-.148-.09-.138-.179.01-.268.119-.069.238-.139.347-.208.258-.159.258-.169.05-.337a2.754,2.754,0,0,1-.674-.694C25.854,61.552,25.893,61.512,26.191,61.4Zm10.673,4.361,1.219-.714a.756.756,0,0,1,.684,0l2.14,1.239a.209.209,0,0,1,0,.4l-1.219.714a.754.754,0,0,1-.683,0L36.864,66.16C36.676,66.041,36.676,65.863,36.864,65.764ZM19.68,55.834,20.9,55.12a.754.754,0,0,1,.683,0l2.141,1.239a.21.21,0,0,1,0,.4l-1.219.714a.756.756,0,0,1-.684,0L19.68,56.23A.209.209,0,0,1,19.68,55.834ZM53.345,81.006l.02-10.773.009-.01-.009.01.009-5.748v-.059h0a.556.556,0,0,0-.277-.367L25.388,48.064a1.533,1.533,0,0,0-1.378,0L7.49,57.657c-.218.129-.307.3-.268.466h0v5.451l-.029.019.029.02v5.342l-.029.02.029.02v5.351l-.029.02.029.02v5.361L33.94,95.217l1.6.922.555.327L53.335,86.447l.01-5.411M36.081,93.968,9.264,78.459V75.565L33.911,89.806l1.595.922.565.327L51.293,82.2v2.943ZM51.293,68.925l-15.242,8.85L9.264,62.315V59.481L35.2,74.455a1.533,1.533,0,0,0,1.378,0L51.293,65.9ZM14.546,56.577a3.97,3.97,0,0,0-.495-.238l7.7-4.469a2.688,2.688,0,0,0,.406.287,5.6,5.6,0,0,0,5.084,0,2.209,2.209,0,0,0,.416-.3l18.731,10.8a3.669,3.669,0,0,0-.694.317c-1.4.813-1.387,2.131.02,2.943a3.953,3.953,0,0,0,.713.318l-7.769,4.519a2.437,2.437,0,0,0-.555-.407,5.61,5.61,0,0,0-5.084,0,2.242,2.242,0,0,0-.288.2L14.051,59.768a3.526,3.526,0,0,0,.515-.248C15.963,58.708,15.953,57.39,14.546,56.577ZM33.911,79.024l1.595.921.565.327,15.222-8.839V74.2L36.081,83.206,9.264,67.7v-2.9Zm.029,5.421,1.6.921.555.327,15.2-8.84v2.855L36.051,88.557,9.264,73.068V70.174Z"/>
<text class="cls-16" transform="translate(294.163 10.56)">انتقال بیتکوین به کیف پول</text>
  <text class="cls-16" transform="translate(128.474 10.56)">آغاز فرآیند استخراج بیتکوین</text>
  <text class="cls-16" transform="translate(0 10.56)">خرید تراهش</text>

</svg>
